<!DOCTYPE svg PUBLIC "-//W3C//DTD SVG 1.1//EN" "http://www.w3.org/Graphics/SVG/1.1/DTD/svg11.dtd">
<!-- Uploaded to: SVG Repo, www.svgrepo.com, Transformed by: SVG Repo Mixer Tools -->
<svg width="225px" height="225px" viewBox="0 0 48 48" xmlns="http://www.w3.org/2000/svg" fill="#000000">
<g id="SVGRepo_bgCarrier" stroke-width="0"/>
<g id="SVGRepo_tracerCarrier" stroke-linecap="round" stroke-linejoin="round" stroke="#b85614" stroke-width="0.8640000000000001">
<defs>
<style>.a{fill:none;stroke:#000000;stroke-linecap:round;stroke-linejoin:round;}</style>
</defs>
<circle class="a" cx="24" cy="24" r="21.5"/>
<path class="a" d="M24,14.5A9.5,9.5,0,0,0,14.5,24V35.04a.5.5,0,0,0,.7418.4376l1.4126-.78A9.6048,9.6048,0,0,1,21.2993,33.5H24a9.5,9.5,0,0,0,0-19Z"/>
</g>
<g id="SVGRepo_iconCarrier">
<defs>
<style>.a{fill:none;stroke:#000000;stroke-linecap:round;stroke-linejoin:round;}</style>
</defs>
<circle class="a" cx="24" cy="24" r="21.5"/>
<path class="a" d="M24,14.5A9.5,9.5,0,0,0,14.5,24V35.04a.5.5,0,0,0,.7418.4376l1.4126-.78A9.6048,9.6048,0,0,1,21.2993,33.5H24a9.5,9.5,0,0,0,0-19Z"/>
</g>
</svg>